<svg id="Layer_1" data-name="Layer 1" xmlns="http://www.w3.org/2000/svg" viewBox="0 0 256 256"><defs><style>.cls-1{fill:#ffaa93;}</style></defs><path class="cls-1" d="M247,33.56a20.37,20.37,0,0,1-3.31,11.22C228.23,68.16,219,97.49,219,129.33s9.19,61.18,24.65,84.55A20.4,20.4,0,0,1,247,225.11v.65a20.75,20.75,0,0,1-20.74,20.74h-4a20.4,20.4,0,0,1-11-3.14c-23.08-14.75-51.73-23.49-82.77-23.49s-59.69,8.74-82.77,23.49a20.4,20.4,0,0,1-11,3.14h-4A20.75,20.75,0,0,1,10,225.76v-.65a20.4,20.4,0,0,1,3.31-11.23C28.77,190.51,38,161.18,38,129.33S28.77,68.16,13.31,44.78A20.37,20.37,0,0,1,10,33.56V30.24A20.75,20.75,0,0,1,30.74,9.5h0a20.55,20.55,0,0,1,11.57,3.55C66,29.17,95.92,38.79,128.5,38.79s62.55-9.62,86.19-25.74A20.55,20.55,0,0,1,226.26,9.5h0A20.75,20.75,0,0,1,247,30.24Z"/></svg>